<svg width="320" height="320" viewBox="0 0 320 320" fill="none" xmlns="http://www.w3.org/2000/svg">
<rect width="320" height="320" fill="#2F3E46"/>
<g clip-path="url(#clip0_1312_424)">
<path d="M269.143 254.15C269.143 254.15 122.817 91.9 121.114 89.6C128.821 85.35 141.283 81.05 159.955 81.05C178.626 81.05 191.089 85.8 198.796 89.6C197.168 92.35 170.729 121.85 170.729 121.85L210.382 165.725L227.485 147.175C241.892 131.24 244.212 107.865 233.248 89.425L211.364 51.76C209.234 48.135 206.415 45.135 202.97 43.21C182.55 29.4 139.079 28.335 117.03 43.21C113.547 45.135 110.741 48.135 108.586 51.76L86.7422 88.4C85.9905 89.65 68.1359 119.45 92.505 146.4L216.831 284C220.841 288.438 227 288.5 232.491 285.875L267.008 271.94C273 268.5 274.053 259.55 269.143 254.15Z" fill="#84A98C"/>
<path d="M160.501 221.65L103.224 284.05C99.2149 288.425 92.4499 289.3 87.4989 285.925L53.0423 271.99C47.0289 267.929 45.9616 259.555 50.7873 254.115L120.843 177.715L160.501 221.65Z" fill="#52796F"/>
</g>
<defs>
<clipPath id="clip0_1312_424">
<rect width="225" height="256" fill="white" transform="translate(47.5 32)"/>
</clipPath>
</defs>
</svg>
